<?xml version="1.0" standalone="no"?>
<!DOCTYPE svg PUBLIC "-//W3C//DTD SVG 20010904//EN"
 "http://www.w3.org/TR/2001/REC-SVG-20010904/DTD/svg10.dtd">
<svg version="1.0" xmlns="http://www.w3.org/2000/svg"
 width="284.000000pt" height="281.000000pt" viewBox="0 0 284.000000 281.000000"
 preserveAspectRatio="xMidYMid meet">
<metadata>
Created by potrace 1.10, written by Peter Selinger 2001-2011
</metadata>
<g transform="translate(0.000000,281.000000) scale(0.100000,-0.100000)"
fill="#000000" stroke="none">
<path d="M1348 2610 c-62 -139 -72 -170 -58 -170 11 0 23 16 34 45 l18 45 92
0 93 0 17 -44 c16 -41 47 -70 46 -43 -2 30 -138 332 -152 335 -10 2 -37 -47
-90 -168z m126 50 c20 -50 36 -93 36 -98 0 -4 -34 -7 -75 -7 -41 0 -75 3 -75
7 0 8 73 188 76 188 1 0 18 -41 38 -90z"/>
<path d="M1155 2750 c-3 -5 8 -82 26 -170 24 -119 36 -160 47 -160 10 0 13 7
9 23 -3 12 -18 88 -33 170 -26 139 -34 161 -49 137z"/>
<path d="M1671 2599 c-29 -87 -50 -163 -46 -169 9 -14 25 -13 25 3 1 28 89
281 93 267 3 -8 27 -88 54 -178 31 -105 54 -167 65 -173 14 -8 23 12 68 149
60 180 59 177 42 177 -9 0 -30 -52 -59 -140 -24 -77 -45 -141 -46 -142 -2 -1
-27 79 -57 177 -38 126 -59 180 -70 183 -13 3 -27 -27 -69 -154z"/>
<path d="M828 2642 c-38 -14 -68 -31 -68 -37 0 -12 124 -292 133 -302 13 -12
154 65 176 96 50 69 47 148 -5 211 -57 67 -126 76 -236 32z m143 -2 c105 -29
140 -175 58 -244 -26 -23 -120 -70 -124 -64 -12 23 -107 247 -108 257 -1 9 21
23 63 38 77 27 66 25 111 13z"/>
<path d="M2094 2521 c-77 -35 -126 -131 -105 -208 14 -53 43 -89 92 -113 47
-24 109 -27 109 -5 0 11 -12 15 -45 15 -78 0 -146 84 -131 163 9 46 41 94 78
117 74 45 183 11 208 -65 10 -32 40 -50 40 -25 0 19 -27 64 -52 86 -60 55
-124 67 -194 35z"/>
<path d="M523 2439 c-6 -6 10 -70 43 -170 68 -207 62 -195 76 -181 10 10 7 25
-16 83 -5 11 13 34 63 78 l69 62 46 -23 c32 -15 49 -19 57 -11 7 7 -13 21 -68
48 -214 103 -261 123 -270 114z m122 -71 c47 -23 85 -45 84 -48 0 -7 -104 -94
-113 -94 -6 -1 -66 158 -66 177 0 11 5 10 95 -35z"/>
<path d="M2320 2221 c-68 -54 -125 -102 -127 -107 -4 -12 115 -164 128 -164
18 0 8 19 -46 88 l-55 70 54 41 c29 23 55 41 57 41 3 0 27 -29 54 -65 27 -36
52 -65 55 -65 22 0 13 20 -36 81 l-54 68 46 36 c26 19 50 35 54 35 5 0 32 -31
61 -70 33 -43 57 -66 63 -60 9 9 -100 161 -120 166 -5 2 -65 -41 -134 -95z"/>
<path d="M328 2210 c-10 -6 -36 -38 -59 -72 -34 -50 -39 -62 -28 -72 8 -7 72
-50 142 -95 90 -58 132 -80 139 -73 7 7 -11 24 -61 56 l-72 46 18 25 c17 25
21 26 115 23 66 -2 99 1 102 8 6 15 -40 24 -120 24 l-64 0 10 26 c12 31 4 67
-20 89 -22 20 -80 29 -102 15z m82 -40 c28 -28 25 -58 -9 -112 l-30 -47 -55
36 -55 37 21 30 c55 80 89 95 128 56z"/>
<path d="M1292 1895 c-284 -51 -576 -228 -711 -431 -63 -94 -91 -181 -91 -283
0 -104 21 -163 81 -223 63 -63 129 -83 248 -75 102 6 163 29 276 103 181 118
312 298 323 442 6 90 -13 133 -72 162 -122 58 -315 -8 -468 -160 -84 -83 -121
-149 -133 -233 -13 -85 40 -177 101 -177 13 0 24 5 24 10 0 6 -9 10 -20 10
-12 0 -32 11 -45 25 -62 61 -12 205 118 343 115 122 243 187 350 180 49 -4 63
-9 89 -36 27 -26 32 -40 36 -89 7 -115 -54 -230 -195 -363 -154 -146 -290
-207 -441 -198 -171 10 -253 115 -230 293 17 121 99 255 244 396 200 193 398
281 665 296 183 10 324 -18 446 -88 l55 -32 -48 -40 c-140 -116 -316 -330
-504 -612 -167 -251 -202 -296 -291 -379 -154 -142 -366 -199 -530 -141 -101
36 -146 99 -140 198 2 30 20 18 23 -15 3 -29 7 -33 35 -36 44 -4 73 26 73 76
0 47 -14 62 -58 62 -43 0 -88 -43 -97 -94 -22 -113 97 -218 262 -233 133 -12
334 50 500 153 165 103 240 198 386 489 110 219 207 365 313 472 79 80 86 84
103 69 71 -64 89 -223 38 -328 -34 -70 -102 -131 -169 -154 -42 -14 -59 -14
-106 -5 -68 13 -92 14 -112 1 -27 -18 9 -30 93 -30 l77 0 17 -36 c19 -39 17
-50 -43 -244 -32 -101 -37 -223 -12 -281 20 -46 73 -106 112 -126 45 -24 131
-21 189 7 26 12 47 28 47 36 0 10 -13 7 -46 -11 -91 -49 -192 -26 -229 52 -22
46 -17 94 24 227 65 208 63 274 -9 346 l-38 38 42 6 c65 10 161 60 209 110
106 108 98 256 -21 378 -25 26 -44 49 -41 52 17 16 137 67 186 80 86 23 209
21 256 -3 30 -15 37 -16 37 -5 0 36 -133 58 -240 40 -78 -14 -185 -54 -232
-88 -27 -19 -27 -19 -65 6 -54 35 -156 72 -253 90 -99 19 -286 20 -388 1z
m798 -376 c0 -56 -13 -92 -50 -139 -17 -22 -16 -17 5 35 17 42 25 80 25 125 0
46 3 61 10 50 5 -8 10 -40 10 -71z m-525 -226 c-8 -16 -37 -74 -64 -130 -76
-154 -155 -275 -216 -331 -52 -47 -129 -97 -108 -69 83 106 128 169 223 312
63 94 118 172 122 173 4 2 8 9 8 15 0 9 39 57 46 57 2 0 -3 -12 -11 -27z m259
-432 c-48 -167 -46 -162 -54 -111 -9 55 2 119 41 241 41 130 43 133 47 60 2
-50 -5 -90 -34 -190z m-1296 -50 c-2 -20 -8 -26 -28 -26 -14 0 -25 5 -25 12 0
6 -3 15 -7 19 -14 13 12 31 38 26 20 -4 25 -10 22 -31z"/>
<path d="M165 1707 c-36 -121 -48 -234 -42 -411 4 -138 10 -190 30 -268 156
-599 662 -998 1267 -998 381 0 710 147 965 430 222 245 335 545 335 884 0 187
-34 386 -66 386 -13 0 -15 -6 -9 -27 29 -108 37 -168 42 -313 4 -127 1 -187
-11 -260 -93 -537 -504 -957 -1035 -1055 -107 -19 -322 -20 -437 0 -170 29
-358 106 -507 207 -87 58 -264 239 -324 328 -89 133 -153 277 -194 435 -20 80
-23 114 -24 295 0 179 3 216 22 290 12 47 24 92 28 101 4 10 0 19 -9 22 -12 5
-19 -7 -31 -46z"/>
</g>
</svg>
